# xmcd
#
# Track frame offsets: 
#        150
#        14856
#        29238
#        40480
#        52383
#        66754
#        77673
#        92206
#        112098
#        129079
#        142364
#        155440
#        170091
#        187435
#        200961
#        227150
#        240764
#        254327
#        267608
#        281734
#        298057
#        314959
#
# Disc length: 4396 seconds
#
# Revision: 0
# Processed by: cddbd v1.5.2PL0 Copyright (c) Steve Scherf et al.
# Submitted via: ExactAudioCopy v0.99pb4
#
DISCID=78112a16
DTITLE=Dan Greer - Beale Street Soul Man: The Sounds of Memphis Sessio
DTITLE=ns
DYEAR=1972
DGENRE=Soul
TTITLE0=Thanks to You Girl
TTITLE1=Shell of a Man
TTITLE2=She's Not Mama's Little Girl Anymore
TTITLE3=Hook Line and Sinker
TTITLE4=You're Slipping Away
TTITLE5=Take a Look at Yourself
TTITLE6=You Can't Prove That
TTITLE7=Peace and Love
TTITLE8=Hell Paso, Pt. 1
TTITLE9=Voodoo Woman
TTITLE10=Bless You
TTITLE11=I'm a Lucky Guy
TTITLE12=How Does It Feel
TTITLE13=It Hurts to Lose at Love
TTITLE14=What Good Is a Man
TTITLE15=Any Moment Now
TTITLE16=Only the Beginning
TTITLE17=Natural Reaction
TTITLE18=Mistaken Identity
TTITLE19=When Will It All End
TTITLE20=Share
TTITLE21=So Good to Be Young
EXTD=
EXTT0=
EXTT1=
EXTT2=
EXTT3=
EXTT4=
EXTT5=
EXTT6=
EXTT7=
EXTT8=
EXTT9=
EXTT10=
EXTT11=
EXTT12=
EXTT13=
EXTT14=
EXTT15=
EXTT16=
EXTT17=
EXTT18=
EXTT19=
EXTT20=
EXTT21=
PLAYORDER=
